<?xml version="1.0" standalone="no"?>
<!DOCTYPE svg PUBLIC "-//W3C//DTD SVG 20010904//EN"
 "http://www.w3.org/TR/2001/REC-SVG-20010904/DTD/svg10.dtd">
<svg version="1.0" xmlns="http://www.w3.org/2000/svg"
 width="452.000000pt" height="452.000000pt" viewBox="0 0 452.000000 452.000000"
 preserveAspectRatio="xMidYMid meet">
<metadata>
Created by potrace 1.14, written by Peter Selinger 2001-2017
</metadata>
<g transform="translate(0.000000,452.000000) scale(0.100000,-0.100000)"
fill="#000000" stroke="none">
<path d="M1652 4229 c-64 -25 -162 -113 -187 -168 l-18 -41 -71 7 c-61 5 -79
2 -124 -17 -59 -26 -127 -95 -137 -140 l-6 -29 -287 -3 -287 -3 -57 -28 c-82
-40 -152 -120 -178 -204 -19 -63 -20 -90 -20 -828 0 -666 2 -764 15 -775 12
-10 18 -10 30 0 13 11 15 96 15 651 l0 639 1445 0 1445 0 0 -683 0 -683 -106
-191 -107 -192 -21 42 c-15 31 -30 45 -56 54 -56 19 -1349 18 -1395 -1 -71
-30 -70 -24 -70 -467 0 -388 1 -398 21 -426 40 -53 32 -53 563 -53 l494 0 -8
-149 c-7 -143 -6 -150 14 -170 37 -37 67 -27 203 64 144 96 109 48 327 440 68
121 127 225 133 230 6 6 8 -90 6 -275 -3 -276 -4 -287 -27 -338 -14 -31 -43
-70 -73 -97 -90 -81 7 -76 -1364 -73 l-1219 3 -54 30 c-29 16 -68 47 -87 68
-65 77 -64 66 -64 733 0 522 -2 603 -15 614 -12 10 -18 10 -30 0 -14 -12 -15
-84 -13 -624 3 -565 5 -615 22 -659 24 -62 106 -151 170 -185 l51 -27 1255 0
1255 0 53 28 c70 37 128 97 161 166 l26 56 5 350 5 350 276 490 c152 270 340
606 420 748 l144 258 22 -28 c27 -33 38 -80 30 -131 -3 -23 -106 -216 -271
-510 -146 -260 -266 -477 -266 -481 0 -15 25 -30 37 -23 17 11 535 941 551
990 20 60 3 136 -42 188 l-33 38 33 70 c22 45 34 85 34 111 -1 130 -136 226
-256 180 -24 -9 -57 -29 -72 -44 -15 -15 -92 -144 -172 -287 -80 -142 -211
-376 -292 -519 l-148 -259 -2 784 -3 785 -28 57 c-35 72 -97 134 -167 167 -55
26 -57 26 -337 29 l-282 3 -6 29 c-10 45 -78 114 -137 140 -44 19 -64 22 -123
17 l-71 -5 -23 44 c-31 57 -109 130 -169 157 -70 31 -209 34 -280 6z m263 -60
c63 -30 130 -99 151 -156 9 -27 21 -52 25 -57 4 -5 35 -1 71 9 78 21 130 10
184 -37 91 -80 96 -199 10 -284 -51 -52 -102 -64 -262 -64 -93 0 -116 -3 -120
-15 -8 -21 -199 -22 -211 -1 -6 11 -54 15 -238 18 -255 4 -265 6 -323 72 -31
36 -52 90 -52 136 1 71 76 160 152 181 34 9 54 8 106 -6 36 -10 67 -14 71 -9
4 5 16 30 25 56 30 81 117 155 211 179 48 13 149 2 200 -22z m2078 -1379 c60
-32 77 -46 72 -59 -12 -31 -267 -481 -276 -487 -10 -6 -238 116 -239 127 0 4
63 120 141 258 l141 252 42 -24 c22 -14 76 -43 119 -67z m-355 -536 c64 -37
118 -68 120 -69 2 -2 -574 -1034 -581 -1041 -5 -5 -232 127 -235 136 -3 9 568
1039 576 1040 2 0 56 -30 120 -66z m-696 -681 c13 -12 18 -31 18 -74 0 -56 -5
-67 -141 -311 -78 -139 -165 -295 -193 -345 l-51 -93 -507 0 c-447 0 -508 2
-522 16 -14 13 -16 64 -16 404 0 340 2 391 16 404 14 14 91 16 696 16 620 0
683 -1 700 -17z m121 -433 c42 -23 77 -46 77 -52 0 -18 -273 -498 -283 -498
-8 0 -213 110 -235 126 -2 1 61 117 140 257 l143 256 40 -23 c22 -13 75 -42
118 -66z"/>
<path d="M3517 4243 c-2 -5 -10 -24 -16 -44 -14 -45 -58 -87 -107 -104 -56
-19 -59 -50 -6 -64 48 -14 74 -41 107 -114 29 -67 53 -73 68 -17 11 43 58 95
112 122 22 11 43 26 47 32 9 14 -10 36 -31 36 -34 0 -78 39 -109 99 -30 55
-53 74 -65 54z m64 -146 l37 -42 -45 -39 c-42 -37 -46 -38 -56 -21 -6 11 -21
29 -33 42 l-23 22 37 39 c20 22 39 40 42 40 3 0 21 -19 41 -41z"/>
<path d="M3896 4068 c-2 -7 -9 -33 -16 -58 -16 -60 -89 -132 -154 -151 -26 -8
-52 -19 -58 -26 -16 -19 6 -39 48 -46 57 -9 99 -49 138 -130 19 -39 37 -80 40
-89 8 -27 46 -23 46 5 1 69 75 154 180 207 79 40 78 54 -6 78 -55 16 -117 81
-151 159 -19 44 -33 63 -46 63 -9 0 -19 -6 -21 -12z m97 -195 c22 -23 48 -45
59 -49 17 -5 13 -11 -31 -40 -28 -19 -65 -53 -80 -75 -27 -36 -30 -38 -36 -19
-4 11 -31 47 -61 79 l-54 58 40 27 c22 14 52 45 67 67 l27 41 16 -23 c8 -13
32 -43 53 -66z"/>
<path d="M3510 3754 c-6 -14 -10 -29 -10 -34 0 -22 -65 -80 -106 -96 -36 -13
-44 -21 -42 -38 2 -14 13 -22 36 -27 46 -9 71 -35 104 -107 33 -72 56 -79 71
-22 11 43 47 83 107 118 25 14 48 31 52 36 9 14 -10 36 -31 36 -34 0 -78 39
-109 99 -36 66 -57 76 -72 35z m71 -127 l36 -42 -44 -41 -43 -41 -21 34 c-11
18 -27 37 -35 41 -13 7 -8 16 23 49 21 22 40 41 43 41 3 0 21 -19 41 -41z"/>
<path d="M1523 2990 c-43 -26 -48 -49 -48 -211 0 -149 7 -174 55 -202 25 -15
92 -17 720 -17 l692 0 34 34 34 34 0 157 0 157 -34 34 -34 34 -693 0 c-672 0
-695 -1 -726 -20z m1417 -50 c18 -18 20 -33 20 -153 0 -99 -4 -138 -14 -153
-14 -18 -33 -19 -701 -19 -668 0 -687 1 -701 19 -10 15 -14 54 -14 157 0 131
1 139 22 153 20 14 102 16 695 16 660 0 673 0 693 -20z"/>
<path d="M582 2811 c-8 -5 -12 -17 -10 -27 3 -18 19 -19 324 -22 277 -2 323 0
334 13 10 12 10 18 0 30 -11 13 -59 15 -324 15 -171 0 -317 -4 -324 -9z"/>
<path d="M573 2394 c-3 -8 -1 -20 4 -25 5 -5 139 -8 334 -7 316 3 324 3 324
23 0 20 -8 20 -328 23 -291 2 -328 1 -334 -14z"/>
<path d="M1528 2293 c-46 -29 -53 -55 -53 -202 0 -162 5 -185 48 -211 31 -19
54 -20 726 -20 l693 0 34 34 34 34 0 156 0 156 -29 32 -29 33 -699 2 c-638 2
-700 1 -725 -14z m1418 -57 c10 -15 14 -54 14 -153 0 -120 -2 -135 -20 -153
-20 -20 -33 -20 -693 -20 -593 0 -675 2 -695 16 -21 14 -22 22 -22 153 0 139
5 161 40 174 8 3 318 5 688 4 654 -2 674 -3 688 -21z"/>
<path d="M577 2003 c-15 -14 -6 -41 16 -47 12 -3 155 -6 318 -6 310 0 341 4
326 44 -6 14 -39 16 -330 16 -178 0 -327 -3 -330 -7z"/>
<path d="M653 1643 c-12 -2 -36 -20 -53 -39 l-30 -35 0 -395 c0 -355 2 -399
17 -425 32 -54 58 -59 312 -59 259 0 286 5 321 62 19 32 20 49 20 418 0 369
-1 386 -20 418 -35 57 -62 62 -317 61 -125 -1 -238 -4 -250 -6z m509 -70 c17
-15 18 -41 18 -404 0 -339 -2 -390 -16 -403 -13 -14 -51 -16 -264 -16 -246 0
-249 0 -264 22 -14 19 -16 74 -16 400 0 365 1 379 20 398 19 19 33 20 262 20
211 0 244 -2 260 -17z"/>
</g>
</svg>
